# xmcd
#
# Track frame offsets:
#	150
#	12847
#	34009
#	53817
#	72111
#	91311
#	114988
#	134011
#	154264
#	173257
#	188448
#	205290
#	224030
#	250554
#	266848
#	283409
#
# Disc length: 4234 seconds
#
# Revision: 4
# Processed by: cddbd v1.5.2PL0 Copyright (c) Steve Scherf et al.
# Submitted via: EasyCDDAExtractor 15.3.0.1
#
DISCID=e4108810
DTITLE=Selena - Greatest Hits
DYEAR=2003
DGENRE=Pop
TTITLE0=My Love
TTITLE1=I Could Fall In Love
TTITLE2=Captive Heart
TTITLE3=I'm Getting Used To You
TTITLE4=God's Child (Baila Conmigo)
TTITLE5=Dreaming Of You
TTITLE6=Missing My Baby
TTITLE7=Wherever You Are (Dondequiera Que Estes)
TTITLE8=Only Love
TTITLE9=A Million To One
TTITLE10=Where Did The Feeling Go
TTITLE11=Is It The Beat
TTITLE12=A Boy Like That
TTITLE13=Always Mine
TTITLE14=Don't Throw Away My Love
TTITLE15=Disco Medley (I Will Survive, Funky Town, Last Dance, The Hustle, On 
TTITLE15=The Radio)
EXTD=
EXTT0=
EXTT1=
EXTT2=
EXTT3=
EXTT4=
EXTT5=
EXTT6=
EXTT7=
EXTT8=
EXTT9=
EXTT10=
EXTT11=
EXTT12=
EXTT13=
EXTT14=
EXTT15=
PLAYORDER=
